<svg xmlns="http://www.w3.org/2000/svg" xmlns:xlink="http://www.w3.org/1999/xlink" width="512" zoomAndPan="magnify" viewBox="0 0 384 383.999986" height="512" preserveAspectRatio="xMidYMid meet" version="1.0"><path fill="#4dff00" d="M 247.425781 285.820312 L 283.863281 285.820312 L 283.863281 249.382812 L 247.425781 249.382812 L 247.425781 212.945312 L 210.992188 212.945312 L 210.992188 176.503906 L 247.425781 176.503906 L 247.425781 140.066406 L 210.992188 140.066406 L 210.992188 67.195312 L 174.550781 67.195312 L 174.550781 140.066406 L 138.113281 140.066406 L 138.113281 103.628906 L 101.675781 103.628906 L 101.675781 140.066406 L 138.113281 140.066406 L 138.113281 176.503906 L 174.550781 176.503906 L 174.550781 212.945312 L 138.113281 212.945312 L 138.113281 249.382812 L 174.550781 249.382812 L 174.550781 322.253906 L 210.992188 322.253906 L 210.992188 249.382812 L 247.425781 249.382812 Z M 283.863281 140.066406 L 283.863281 103.628906 L 247.425781 103.628906 L 247.425781 140.066406 Z M 101.675781 285.820312 L 138.113281 285.820312 L 138.113281 249.382812 L 101.675781 249.382812 Z M 101.675781 285.820312 " fill-opacity="1" fill-rule="nonzero"/><path fill="#4dff00" d="M 283.984375 139.738281 L 283.984375 103.300781 L 247.546875 103.300781 L 247.546875 139.738281 L 211.113281 139.738281 L 211.113281 176.175781 L 174.671875 176.175781 L 174.671875 139.738281 L 138.234375 139.738281 L 138.234375 176.175781 L 65.359375 176.175781 L 65.359375 212.613281 L 138.234375 212.613281 L 138.234375 249.050781 L 101.796875 249.050781 L 101.796875 285.488281 L 138.234375 285.488281 L 138.234375 249.050781 L 174.671875 249.050781 L 174.671875 212.613281 L 211.113281 212.613281 L 211.113281 249.050781 L 247.546875 249.050781 L 247.546875 212.613281 L 320.421875 212.613281 L 320.421875 176.175781 L 247.546875 176.175781 L 247.546875 139.738281 Z M 138.234375 103.300781 L 101.796875 103.300781 L 101.796875 139.738281 L 138.234375 139.738281 Z M 283.984375 285.488281 L 283.984375 249.050781 L 247.546875 249.050781 L 247.546875 285.488281 Z M 283.984375 285.488281 " fill-opacity="1" fill-rule="nonzero"/></svg>